<svg width="150" height="95" viewBox="0 0 150 95" fill="none" xmlns="http://www.w3.org/2000/svg">
<circle cx="47.272" cy="47.272" r="47.272" fill="#4CCAE6"/>
<path d="M42.2927 68.2818H37.8807V27.3127H42.2927V44.7088L53.2598 27.3127H58.1761L47.0199 44.9609L58.9325 68.2818H54.0792L44.3727 49.1839L42.2927 52.5245V68.2818Z" fill="#333333"/>
<path d="M86.9854 35.1914V60.4031C86.9854 63.2184 86.082 65.4035 84.2752 66.9582C82.5104 68.4709 79.8421 69.2272 76.2705 69.2272C72.7408 69.2272 70.0726 68.4709 68.2657 66.9582C66.4589 65.4035 65.5555 63.2184 65.5555 60.4031V35.1914C65.5555 32.3761 66.4379 30.2121 68.2027 28.6994C70.0095 27.1447 72.6778 26.3673 76.2074 26.3673C79.7791 26.3673 82.4683 27.1447 84.2752 28.6994C86.082 30.2121 86.9854 32.3761 86.9854 35.1914ZM82.5734 60.4031V35.1914C82.5734 31.8298 80.4724 30.1491 76.2705 30.1491C72.0685 30.1491 69.9675 31.8298 69.9675 35.1914V60.4031C69.9675 63.7647 72.0685 65.4455 76.2705 65.4455C80.4724 65.4455 82.5734 63.7647 82.5734 60.4031Z" fill="#333333"/>
<path d="M107.014 51.2639V47.4821H118.485V60.4031C118.485 63.2184 117.624 65.4035 115.901 66.9582C114.178 68.4709 111.594 69.2272 108.149 69.2272C104.703 69.2272 102.098 68.4709 100.333 66.9582C98.5681 65.4035 97.6857 63.2184 97.6857 60.4031V35.1914C97.6857 32.3761 98.5471 30.2121 100.27 28.6994C101.993 27.1447 104.577 26.3673 108.022 26.3673C111.468 26.3673 114.073 27.1447 115.838 28.6994C117.603 30.2121 118.485 32.3761 118.485 35.1914V38.658H114.073V35.1914C114.073 31.8298 112.077 30.1491 108.085 30.1491C104.094 30.1491 102.098 31.8298 102.098 35.1914V60.4031C102.098 63.7647 104.094 65.4455 108.085 65.4455C112.077 65.4455 114.073 63.7647 114.073 60.4031V51.2639H107.014Z" fill="#333333"/>
<path d="M145.588 60.4031V56.9365H150V60.4031C150 63.2184 149.139 65.4035 147.416 66.9582C145.693 68.4709 143.109 69.2272 139.663 69.2272C136.218 69.2272 133.612 68.4709 131.848 66.9582C130.083 65.4035 129.2 63.2184 129.2 60.4031V35.1914C129.2 32.3761 130.062 30.2121 131.785 28.6994C133.507 27.1447 136.092 26.3673 139.537 26.3673C142.983 26.3673 145.588 27.1447 147.353 28.6994C149.118 30.2121 150 32.3761 150 35.1914V49.0579H133.612V60.4031C133.612 63.7647 135.608 65.4455 139.6 65.4455C143.592 65.4455 145.588 63.7647 145.588 60.4031ZM133.612 35.1914V45.2761H145.588V35.1914C145.588 31.8298 143.592 30.1491 139.6 30.1491C135.608 30.1491 133.612 31.8298 133.612 35.1914Z" fill="#333333"/>
</svg>
